<svg width="193.953" height="56.836" viewBox="0 0 193.953 56.836" xmlns="http://www.w3.org/2000/svg"><g id="svgGroup" stroke-linecap="round" fill-rule="evenodd" font-size="9pt" stroke="#000000" stroke-width="0.25mm" fill="#000000" style="stroke:#000000;stroke-width:0.25mm;fill:#000000"><path d="M 125.581 47.65 Q 121.801 47.65 117.901 45.64 Q 114.001 43.63 109.141 40.33 Q 106.381 42.31 102.721 42.31 Q 100.201 42.31 98.101 41.44 Q 96.001 40.57 94.711 38.86 Q 93.421 37.15 93.421 34.69 Q 93.421 32.17 96.361 32.17 Q 100.561 32.17 108.901 37.99 Q 111.661 34.15 113.821 21.67 Q 109.561 21.67 106.261 19.9 Q 102.961 18.13 101.131 15.1 Q 99.301 12.07 99.301 8.29 Q 99.301 5.71 100.381 4.03 Q 101.761 2.11 104.101 2.11 Q 106.141 2.11 107.821 3.43 Q 109.501 4.75 110.161 6.73 Q 110.161 7.33 109.801 7.33 Q 109.561 7.33 109.441 7.18 Q 109.321 7.03 109.261 6.91 Q 107.461 3.07 104.221 3.07 Q 100.321 3.07 100.321 8.83 Q 100.321 12.31 102.181 15.01 Q 104.041 17.71 107.161 19.21 Q 110.281 20.71 113.941 20.71 Q 114.301 17.41 115.111 14.17 Q 115.921 10.93 117.211 8.26 Q 118.501 5.59 120.331 3.97 Q 122.161 2.35 124.621 2.35 Q 127.081 2.35 128.221 3.7 Q 129.361 5.05 129.361 7.09 Q 129.361 9.07 128.431 11.41 Q 127.501 13.75 125.881 15.85 Q 124.201 18.01 121.801 19.57 Q 119.401 21.13 116.761 21.55 Q 116.161 27.43 114.901 31.69 Q 113.641 35.95 110.521 39.25 Q 112.081 40.33 114.211 41.38 Q 116.341 42.43 118.651 43.33 Q 120.961 44.23 123.151 44.77 Q 125.341 45.31 127.021 45.31 Q 129.481 45.31 130.651 44.14 Q 131.821 42.97 131.821 41.11 A 6.918 6.918 0 0 0 131.786 40.423 A 3.596 3.596 0 0 1 129.331 38.38 Q 128.341 36.25 128.341 33.31 Q 128.341 31.21 128.701 29.05 Q 129.421 24.73 130.321 19.69 Q 130.861 19.87 131.221 19.87 Q 132.421 19.87 133.141 18.43 Q 133.261 18.13 133.501 18.13 Q 133.741 18.13 133.681 18.55 Q 133.441 19.51 132.901 22.06 Q 132.361 24.61 131.461 28.69 Q 131.161 30.19 130.951 31.84 Q 130.741 33.49 130.741 34.93 Q 130.741 36.97 131.281 38.41 A 1.91 1.91 0 0 0 131.745 39.253 A 0.295 0.295 0 0 1 131.941 39.19 A 0.655 0.655 0 0 1 132.442 39.721 A 1.91 1.91 0 0 0 133.141 39.85 Q 134.941 39.85 136.081 38.29 Q 137.221 36.73 137.941 34.48 Q 138.661 32.23 139.081 30.19 A 0.409 0.409 0 0 1 139.186 29.905 A 21.94 21.94 0 0 1 139.891 26.14 Q 140.701 23.23 142.291 21.31 Q 143.881 19.39 146.221 19.39 Q 149.581 19.39 150.001 24.49 L 150.541 19.57 Q 150.721 19.63 151.081 19.63 Q 152.221 19.63 152.941 18.31 Q 153.001 18.07 153.181 18.07 Q 153.421 18.07 153.481 18.43 L 152.221 29.11 Q 151.861 32.17 151.861 35.05 Q 151.861 37.33 152.191 38.47 Q 152.521 39.61 153.421 39.61 Q 154.441 39.61 155.281 38.68 Q 156.121 37.75 156.781 36.28 Q 157.441 34.81 157.951 33.19 Q 158.461 31.57 158.701 30.19 A 0.626 0.626 0 0 1 158.776 29.819 L 159.661 19.75 Q 159.901 19.81 160.261 19.81 Q 161.761 19.81 162.601 18.67 Q 162.721 18.49 162.841 18.49 Q 163.141 18.49 163.021 18.85 Q 162.901 19.33 162.541 21.25 Q 162.181 23.17 161.581 26.89 Q 162.421 23.35 164.041 21.19 Q 165.661 19.03 167.881 19.03 Q 169.801 19.03 170.491 20.35 Q 171.181 21.67 171.181 23.65 Q 171.181 25.33 170.851 27.25 Q 170.521 29.17 170.221 31.03 Q 169.921 33.01 169.651 34.81 Q 169.381 36.61 169.381 37.99 Q 169.381 39.13 169.681 39.85 Q 169.981 40.57 170.761 40.57 Q 171.841 40.57 173.041 38.95 Q 174.241 37.33 175.201 34.9 Q 176.161 32.47 176.521 30.19 A 5.765 5.765 0 0 0 176.56 30.065 A 21.08 21.08 0 0 1 177.271 25.78 Q 178.021 23.05 179.611 21.28 Q 181.201 19.51 183.661 19.51 Q 185.221 19.51 186.121 20.56 Q 187.021 21.61 187.381 24.13 Q 188.041 19.51 189.181 18.19 Q 189.781 17.41 190.381 17.41 Q 191.161 17.41 191.161 18.19 Q 191.161 18.61 190.381 19.51 Q 189.781 20.17 189.421 20.71 Q 189.061 21.25 188.761 22.15 Q 188.341 23.23 188.071 25.12 Q 187.801 27.01 187.801 29.53 Q 187.801 31.81 187.921 34.57 Q 188.041 37.33 188.101 39.07 Q 189.841 37.87 191.191 35.71 Q 192.541 33.55 193.201 30.19 Q 193.321 29.71 193.681 29.71 Q 194.041 29.71 193.921 30.19 Q 193.021 34.27 191.581 36.4 Q 190.141 38.53 188.161 39.67 L 188.341 43.15 Q 188.341 46.57 187.351 49.57 Q 186.361 52.57 184.471 54.4 Q 182.581 56.23 179.821 56.23 Q 177.961 56.23 177.121 55.3 Q 176.281 54.37 176.281 52.87 Q 176.281 50.83 177.511 48.88 Q 178.741 46.93 180.241 45.31 Q 181.321 44.17 182.671 43 Q 184.021 41.83 185.221 40.96 Q 186.421 40.09 186.841 39.85 L 186.841 33.25 Q 185.221 40.45 181.801 40.45 Q 179.821 40.45 178.651 39.16 Q 177.481 37.87 177.001 35.77 A 19.6 19.6 0 0 1 176.6 33.213 A 23.529 23.529 0 0 1 176.401 33.88 Q 175.801 35.83 174.871 37.54 Q 173.941 39.25 172.801 40.3 Q 171.661 41.35 170.341 41.35 Q 168.301 41.35 167.521 40.09 Q 166.741 38.83 166.741 36.49 Q 166.741 34.15 167.281 31.03 Q 167.761 28.63 168.181 26.44 Q 168.601 24.25 168.601 22.69 Q 168.601 21.43 168.211 20.71 Q 167.821 19.99 166.801 19.99 Q 165.841 19.99 164.971 21.13 Q 164.101 22.27 163.381 23.95 Q 162.661 25.63 162.151 27.34 Q 161.641 29.05 161.461 30.13 Q 161.041 32.29 160.771 35.26 Q 160.501 38.23 160.321 40.45 Q 158.761 40.27 158.341 41.59 Q 158.281 41.83 158.041 41.95 Q 157.861 42.07 157.741 41.95 Q 157.681 41.83 157.741 41.59 L 158.359 34.556 A 48.67 48.67 0 0 1 158.221 35.02 Q 157.501 37.39 156.241 38.92 Q 154.981 40.45 152.941 40.45 Q 151.501 40.45 150.691 39.34 Q 149.881 38.23 149.581 36.58 Q 149.281 34.93 149.281 33.31 Q 147.541 39.91 144.541 40.51 Q 144.301 40.57 144.121 40.57 L 143.701 40.57 Q 142.021 40.57 141.001 39.31 Q 139.981 38.05 139.531 36.07 A 18.082 18.082 0 0 1 139.11 33.091 A 32.745 32.745 0 0 1 138.021 36.265 A 11.888 11.888 0 0 1 137.071 38.08 Q 135.481 40.51 132.901 40.51 A 3.596 3.596 0 0 1 132.56 40.521 A 6.798 6.798 0 0 1 132.601 41.35 Q 132.601 44.11 130.651 45.88 Q 128.701 47.65 125.581 47.65 Z M 47.641 24.49 L 48.181 19.57 Q 48.361 19.63 48.721 19.63 Q 49.861 19.63 50.581 18.31 Q 50.641 18.07 50.821 18.07 Q 51.061 18.07 51.121 18.43 L 49.861 29.11 Q 49.501 32.17 49.501 35.05 Q 49.501 37.33 49.831 38.47 Q 50.161 39.61 51.061 39.61 Q 52.081 39.61 52.921 38.68 Q 53.761 37.75 54.421 36.28 Q 55.081 34.81 55.591 33.19 Q 56.101 31.57 56.341 30.19 A 0.626 0.626 0 0 1 56.353 29.985 A 16.907 16.907 0 0 1 57.241 25.18 Q 58.141 22.57 59.791 20.92 Q 61.441 19.27 63.601 19.27 Q 67.261 19.27 67.261 23.65 Q 67.261 24.61 67.021 25.75 Q 66.781 26.89 66.301 27.7 Q 65.821 28.51 64.981 28.51 Q 64.021 28.51 64.021 27.43 Q 64.021 26.35 64.621 25.69 Q 65.221 25.03 65.821 24.43 Q 66.421 23.83 66.421 23.05 Q 66.421 20.35 64.441 20.35 Q 63.241 20.35 62.281 21.43 Q 61.321 22.51 60.631 24.28 Q 59.941 26.05 59.551 28.09 Q 59.161 30.13 59.161 32.05 Q 59.161 34.15 59.461 35.95 Q 59.761 37.75 60.541 38.8 Q 61.321 39.85 62.761 39.85 Q 64.681 39.85 66.181 38.41 Q 67.681 36.97 68.731 34.75 Q 69.781 32.53 70.201 30.19 A 0.533 0.533 0 0 1 70.229 30 A 298.388 298.388 0 0 1 70.321 29.23 Q 70.801 25.15 71.491 20.98 Q 72.181 16.81 73.141 13.06 Q 74.101 9.31 75.391 6.37 Q 76.681 3.43 78.361 1.72 Q 80.041 0.01 82.201 0.01 Q 85.561 0.01 85.561 3.79 Q 85.561 5.89 84.601 8.41 Q 83.641 10.93 82.021 13.36 Q 80.401 15.79 78.451 17.56 Q 76.501 19.33 74.461 19.87 Q 73.021 26.23 72.301 32.17 Q 72.541 31.39 72.841 30.31 Q 73.141 29.23 73.561 27.73 Q 74.461 24.97 75.781 22.75 Q 77.101 20.53 78.631 19.18 Q 80.161 17.83 81.601 17.83 Q 84.421 17.83 84.421 20.95 Q 84.421 22.87 83.221 24.31 Q 82.021 25.75 80.221 26.65 Q 78.421 27.55 76.621 27.91 Q 77.461 27.91 78.061 28.69 Q 78.961 29.89 79.321 32.59 L 79.561 35.11 Q 79.681 36.37 79.801 37.57 Q 79.921 38.65 80.371 39.13 Q 80.821 39.61 81.421 39.61 Q 82.501 39.61 83.401 38.59 Q 84.301 37.57 85.021 36.07 Q 85.741 34.57 86.251 32.95 Q 86.761 31.33 86.941 30.19 Q 87.061 29.71 87.301 29.71 Q 87.601 29.71 87.631 29.89 Q 87.661 30.07 87.661 30.19 Q 87.121 32.95 86.221 35.29 Q 85.321 37.63 83.971 39.1 Q 82.621 40.57 80.641 40.57 Q 79.381 40.57 78.331 39.82 Q 77.281 39.07 76.861 37.75 Q 76.561 36.67 76.471 35.17 Q 76.381 33.67 76.381 32.29 Q 76.381 30.91 76.321 30.31 Q 76.261 29.11 75.871 28.57 Q 75.481 28.03 74.401 27.97 L 74.281 28.39 Q 71.521 37.93 71.521 40.21 L 70.741 40.15 Q 70.081 40.03 69.781 40.81 Q 69.721 40.93 69.541 40.93 Q 69.241 40.93 69.241 40.45 A 146.818 146.818 0 0 1 69.752 34.275 A 21.344 21.344 0 0 1 69.331 35.26 Q 68.221 37.69 66.511 39.19 Q 64.801 40.69 62.461 40.69 Q 59.941 40.69 58.621 39.16 Q 57.301 37.63 56.821 35.32 A 22.511 22.511 0 0 1 56.45 32.909 A 48.67 48.67 0 0 1 55.861 35.02 Q 55.141 37.39 53.881 38.92 Q 52.621 40.45 50.581 40.45 Q 49.141 40.45 48.331 39.34 Q 47.521 38.23 47.221 36.58 Q 46.921 34.93 46.921 33.31 Q 45.181 39.91 42.181 40.51 Q 41.941 40.57 41.761 40.57 L 41.341 40.57 Q 39.661 40.57 38.641 39.31 Q 37.621 38.05 37.171 36.07 Q 36.721 34.09 36.721 32.05 Q 36.721 29.05 37.531 26.14 Q 38.341 23.23 39.931 21.31 Q 41.521 19.39 43.861 19.39 Q 47.221 19.39 47.641 24.49 Z M 36.721 3.97 L 36.901 3.97 Q 36.961 4.03 36.961 4.15 Q 36.961 4.21 36.541 4.54 Q 36.121 4.87 35.701 5.53 Q 34.081 7.93 33.601 10.33 Q 33.121 12.73 33.121 15.85 Q 33.121 17.89 33.211 20.38 Q 33.301 22.87 33.301 25.99 Q 33.301 31.99 32.101 37.54 Q 30.901 43.09 28.411 47.44 Q 25.921 51.79 22.051 54.31 Q 18.181 56.83 12.841 56.83 Q 9.241 56.83 6.331 55.06 Q 3.421 53.29 1.711 50.29 Q 0.001 47.29 0.001 43.63 Q 0.001 40.15 1.471 37.27 Q 2.941 34.39 5.581 32.65 Q 8.221 30.91 11.581 30.91 Q 14.101 30.91 16.021 32.11 Q 17.941 33.31 19.021 35.38 Q 20.101 37.45 20.101 39.97 Q 20.101 43.51 18.061 45.64 Q 16.021 47.77 12.841 47.77 Q 11.341 47.77 10.561 47.26 Q 9.781 46.75 9.781 46.33 Q 9.781 45.79 10.141 45.79 Q 10.561 46.57 11.281 46.81 Q 12.001 47.05 12.781 47.05 Q 15.721 47.05 17.401 45.04 Q 19.081 43.03 19.081 39.97 Q 19.081 37.69 18.151 35.8 Q 17.221 33.91 15.541 32.8 Q 13.861 31.69 11.581 31.69 Q 8.581 31.69 6.331 33.25 Q 4.081 34.81 2.851 37.42 Q 1.621 40.03 1.621 43.21 Q 1.621 46.57 3.061 49.45 Q 4.501 52.33 7.051 54.1 Q 9.601 55.87 12.901 55.87 Q 16.861 55.87 19.831 53.89 Q 22.801 51.91 24.841 48.52 Q 26.881 45.13 28.141 40.72 Q 29.401 36.31 29.971 31.42 Q 30.541 26.53 30.541 21.67 Q 30.541 14.47 31.951 9.94 Q 33.361 5.41 35.881 4.27 Q 35.641 4.21 34.891 4.09 Q 34.141 3.97 33.121 3.97 Q 29.881 3.97 27.031 5.32 Q 24.181 6.67 22.411 9.1 Q 20.641 11.53 20.641 14.77 Q 20.641 16.45 21.331 17.8 Q 22.021 19.15 23.761 19.15 Q 25.381 19.15 26.551 17.8 Q 27.721 16.45 27.721 14.77 Q 27.721 14.23 27.601 13.6 Q 27.481 12.97 27.361 12.85 Q 27.241 12.61 27.241 12.55 Q 27.241 12.19 27.601 12.19 Q 27.901 12.19 28.201 12.82 Q 28.501 13.45 28.501 14.83 Q 28.501 16.87 27.121 18.37 Q 25.741 19.87 23.641 19.87 Q 21.421 19.87 20.371 18.49 Q 19.321 17.11 19.321 15.13 Q 19.321 11.71 21.301 9.1 Q 23.281 6.49 26.461 4.99 Q 29.641 3.49 33.241 3.49 Q 34.141 3.49 35.341 3.73 Q 36.541 3.97 36.721 3.97 Z M 41.881 39.79 Q 41.041 39.91 40.501 38.71 Q 39.961 37.51 39.721 35.71 Q 39.481 33.91 39.481 32.29 Q 39.481 30.67 39.841 28.6 Q 40.201 26.53 40.831 24.58 Q 41.461 22.63 42.331 21.37 Q 43.201 20.11 44.221 20.11 Q 45.301 20.11 45.901 21.16 Q 46.501 22.21 46.771 23.8 Q 47.041 25.39 47.041 27.07 Q 47.041 28.57 46.861 29.83 Q 46.561 31.87 45.871 34.12 Q 45.181 36.37 44.191 37.99 Q 43.201 39.61 41.881 39.79 Z M 144.241 39.79 Q 143.401 39.91 142.861 38.71 Q 142.321 37.51 142.081 35.71 Q 141.841 33.91 141.841 32.29 Q 141.841 30.67 142.201 28.6 Q 142.561 26.53 143.191 24.58 Q 143.821 22.63 144.691 21.37 Q 145.561 20.11 146.581 20.11 Q 147.661 20.11 148.261 21.16 Q 148.861 22.21 149.131 23.8 Q 149.401 25.39 149.401 27.07 Q 149.401 28.57 149.221 29.83 Q 148.921 31.87 148.231 34.12 Q 147.541 36.37 146.551 37.99 Q 145.561 39.61 144.241 39.79 Z M 182.041 39.61 Q 179.401 39.61 179.401 31.63 Q 179.401 29.71 179.701 27.73 Q 180.001 25.75 180.601 24.01 Q 181.201 22.27 182.041 21.22 Q 182.881 20.17 183.961 20.17 Q 185.521 20.17 186.211 21.94 Q 186.901 23.71 186.901 26.71 Q 186.901 28.21 186.571 30.4 Q 186.241 32.59 185.611 34.69 Q 184.981 36.79 184.081 38.2 Q 183.181 39.61 182.041 39.61 Z M 116.821 20.53 Q 117.121 17.71 117.691 14.77 Q 118.261 11.83 119.251 9.31 Q 120.241 6.79 121.771 5.26 Q 123.301 3.73 125.521 3.73 Q 126.961 3.73 127.591 4.75 Q 128.221 5.77 128.221 7.33 Q 128.221 9.19 127.471 11.32 Q 126.721 13.45 125.341 15.19 Q 123.781 17.23 121.561 18.67 Q 119.341 20.11 116.821 20.53 Z M 74.701 18.97 Q 75.361 16.21 75.871 14.23 Q 76.381 12.25 76.741 10.93 Q 78.241 5.71 79.681 3.43 Q 81.121 1.15 82.801 1.15 Q 84.661 1.15 84.661 4.03 Q 84.661 5.89 83.731 8.23 Q 82.801 10.57 81.331 12.82 Q 79.861 15.07 78.091 16.75 Q 76.321 18.43 74.701 18.97 Z M 179.401 54.79 Q 177.181 54.79 177.181 52.63 Q 177.181 51.01 178.321 49.18 Q 179.461 47.35 180.841 45.85 Q 181.741 44.83 183.031 43.75 Q 184.321 42.67 185.431 41.8 Q 186.541 40.93 186.901 40.63 Q 186.901 43.09 186.571 44.86 Q 186.241 46.63 185.761 48.01 Q 184.861 50.77 183.211 52.78 Q 181.561 54.79 179.401 54.79 Z M 102.361 41.35 Q 100.681 41.35 98.881 40.42 Q 97.081 39.49 95.851 38.08 Q 94.621 36.67 94.621 35.23 Q 94.621 33.85 96.301 33.85 Q 99.481 33.85 107.641 39.37 Q 105.481 41.35 102.361 41.35 Z M 74.761 27.31 Q 75.361 25.57 76.471 23.56 Q 77.581 21.55 78.871 20.11 Q 80.161 18.67 81.241 18.67 Q 81.961 18.67 82.321 19.03 Q 82.681 19.39 82.681 20.41 Q 82.681 21.43 81.931 22.63 Q 81.181 23.83 79.981 24.91 Q 78.781 25.99 77.401 26.68 Q 76.021 27.37 74.761 27.31 Z M 132.601 14.71 Q 131.821 14.71 131.311 14.2 Q 130.801 13.69 130.801 12.91 Q 130.801 12.07 131.431 11.47 Q 132.061 10.87 132.901 10.87 Q 133.621 10.87 134.131 11.38 Q 134.641 11.89 134.641 12.67 Q 134.641 13.51 134.041 14.11 Q 133.441 14.71 132.601 14.71 Z"/></g></svg>