<svg width="76.653" height="45.606" viewBox="0 0 76.653 45.606" xmlns="http://www.w3.org/2000/svg"><g id="svgGroup" stroke-linecap="round" fill-rule="evenodd" font-size="9pt" stroke="#000000" stroke-width="0.25mm" fill="#000000" style="stroke:#000000;stroke-width:0.25mm;fill:#000000"><path d="M 30.601 1.551 L 30.751 1.551 Q 30.801 1.601 30.801 1.701 Q 30.801 1.751 30.451 2.026 Q 30.101 2.301 29.751 2.851 Q 28.401 4.851 28.001 6.851 Q 27.601 8.851 27.601 11.451 Q 27.601 13.151 27.676 15.226 Q 27.751 17.301 27.751 19.901 Q 27.751 24.901 26.751 29.526 Q 25.751 34.151 23.676 37.776 Q 21.601 41.401 18.376 43.501 Q 15.151 45.601 10.701 45.601 Q 7.701 45.601 5.276 44.126 Q 2.851 42.651 1.426 40.151 Q 0.001 37.651 0.001 34.601 Q 0.001 31.701 1.226 29.301 Q 2.451 26.901 4.651 25.451 Q 6.851 24.001 9.651 24.001 Q 11.751 24.001 13.351 25.001 Q 14.951 26.001 15.851 27.726 Q 16.751 29.451 16.751 31.551 Q 16.751 34.501 15.051 36.276 Q 13.351 38.051 10.701 38.051 Q 9.451 38.051 8.801 37.626 Q 8.151 37.201 8.151 36.851 Q 8.151 36.401 8.451 36.401 Q 8.801 37.051 9.401 37.251 Q 10.001 37.451 10.651 37.451 Q 13.101 37.451 14.501 35.776 Q 15.901 34.101 15.901 31.551 Q 15.901 29.651 15.126 28.076 Q 14.351 26.501 12.951 25.576 Q 11.551 24.651 9.651 24.651 Q 7.151 24.651 5.276 25.951 Q 3.401 27.251 2.376 29.426 Q 1.351 31.601 1.351 34.251 Q 1.351 37.051 2.551 39.451 Q 3.751 41.851 5.876 43.326 Q 8.001 44.801 10.751 44.801 Q 14.051 44.801 16.526 43.151 Q 19.001 41.501 20.701 38.676 Q 22.401 35.851 23.451 32.176 Q 24.501 28.501 24.976 24.426 Q 25.451 20.351 25.451 16.301 Q 25.451 10.301 26.626 6.526 Q 27.801 2.751 29.901 1.801 Q 29.701 1.751 29.076 1.651 Q 28.451 1.551 27.601 1.551 Q 24.901 1.551 22.526 2.676 Q 20.151 3.801 18.676 5.826 Q 17.201 7.851 17.201 10.551 Q 17.201 11.951 17.776 13.076 Q 18.351 14.201 19.801 14.201 Q 21.151 14.201 22.126 13.076 Q 23.101 11.951 23.101 10.551 Q 23.101 10.101 23.001 9.576 Q 22.901 9.051 22.801 8.951 Q 22.701 8.751 22.701 8.701 Q 22.701 8.401 23.001 8.401 Q 23.251 8.401 23.501 8.926 Q 23.751 9.451 23.751 10.601 Q 23.751 12.301 22.601 13.551 Q 21.451 14.801 19.701 14.801 Q 17.851 14.801 16.976 13.651 Q 16.101 12.501 16.101 10.851 Q 16.101 8.001 17.751 5.826 Q 19.401 3.651 22.051 2.401 Q 24.701 1.151 27.701 1.151 Q 28.451 1.151 29.451 1.351 Q 30.451 1.551 30.601 1.551 Z M 70.801 37.951 Q 67.651 37.951 64.401 36.276 Q 61.151 34.601 57.101 31.851 Q 54.801 33.501 51.751 33.501 Q 49.651 33.501 47.901 32.776 Q 46.151 32.051 45.076 30.626 Q 44.001 29.201 44.001 27.151 Q 44.001 25.051 46.451 25.051 Q 49.951 25.051 56.901 29.901 Q 59.201 26.701 61.001 16.301 Q 57.451 16.301 54.701 14.826 Q 51.951 13.351 50.426 10.826 Q 48.901 8.301 48.901 5.151 Q 48.901 3.001 49.801 1.601 Q 50.951 0.001 52.901 0.001 Q 54.601 0.001 56.001 1.101 Q 57.401 2.201 57.951 3.851 Q 57.951 4.351 57.651 4.351 Q 57.451 4.351 57.351 4.226 Q 57.251 4.101 57.201 4.001 Q 55.701 0.801 53.001 0.801 Q 49.751 0.801 49.751 5.601 Q 49.751 8.501 51.301 10.751 Q 52.851 13.001 55.451 14.251 Q 58.051 15.501 61.101 15.501 Q 61.401 12.751 62.076 10.051 Q 62.751 7.351 63.826 5.126 Q 64.901 2.901 66.426 1.551 Q 67.951 0.201 70.001 0.201 Q 72.051 0.201 73.001 1.326 Q 73.951 2.451 73.951 4.151 Q 73.951 5.801 73.176 7.751 Q 72.401 9.701 71.051 11.451 Q 69.651 13.251 67.651 14.551 Q 65.651 15.851 63.451 16.201 Q 62.951 21.101 61.901 24.651 Q 60.851 28.201 58.251 30.951 Q 59.551 31.851 61.326 32.726 Q 63.101 33.601 65.026 34.351 Q 66.951 35.101 68.776 35.551 Q 70.601 36.001 72.001 36.001 Q 74.051 36.001 75.026 35.026 Q 76.001 34.051 76.001 32.501 Q 76.001 31.851 75.851 31.201 Q 75.851 30.901 76.101 30.901 Q 76.401 30.901 76.526 31.451 Q 76.651 32.001 76.651 32.701 Q 76.651 35.001 75.026 36.476 Q 73.401 37.951 70.801 37.951 Z M 63.501 15.351 Q 63.751 13.001 64.226 10.551 Q 64.701 8.101 65.526 6.001 Q 66.351 3.901 67.626 2.626 Q 68.901 1.351 70.751 1.351 Q 71.951 1.351 72.476 2.201 Q 73.001 3.051 73.001 4.351 Q 73.001 5.901 72.376 7.676 Q 71.751 9.451 70.601 10.901 Q 69.301 12.601 67.451 13.801 Q 65.601 15.001 63.501 15.351 Z M 51.451 32.701 Q 50.051 32.701 48.551 31.926 Q 47.051 31.151 46.026 29.976 Q 45.001 28.801 45.001 27.601 Q 45.001 26.451 46.401 26.451 Q 49.051 26.451 55.851 31.051 Q 54.051 32.701 51.451 32.701 Z M 44.401 20.351 L 32.751 20.351 L 32.901 19.351 L 44.551 19.351 L 44.401 20.351 Z"/></g></svg>